# OBJ written from E:\3D\Workfiles\_Modo\Medieval\Export\v1\V1 MRG.obj
# Units	meters

o MRG
v -0.075 0.275 -1
v -0.025 0.275 -1
v -0.025 0.275 1
v -0.075 0.275 1
v -0.075 0.325 -1
v -0.025 0.325 -1
v -0.025 0.325 1
v -0.075 0.325 1
v -0.025 -0.5 -1
v 0.025 -0.5 -1
v 0.025 -0.5 1
v -0.025 -0.5 1
v -0.0125 0.51 -1
v 0.0125 0.51 -1
v 0.0125 0.51 1
v -0.0125 0.51 1
v -0.0995 -0.5 1
v 0.1005 -0.5 1
v 0.1005 -0.5 1.2
v -0.0995 -0.5 1.2
v -0.0995 0.7 1
v 0.1005 0.7 1
v 0.1005 0.7 1.2
v -0.0995 0.7 1.2
v 0.075 0.431888 1.00261
v 0.025 0.431888 1.00261
v 0.025 -0.500001 0.0707901
v 0.075 -0.500001 0.0707901
v 0.075 0.501892 1.0019
v 0.025 0.501892 1.0019
v 0.025 -0.500001 -6.19888e-005
v 0.075 -0.500001 -6.19888e-005
v -0.0995 -0.5 -1.00012
v 0.1005 -0.5 -1.00012
v 0.1005 -0.5 -1.20012
v -0.0995 -0.5 -1.20012
v -0.0995 0.7 -1.00012
v 0.1005 0.7 -1.00012
v 0.1005 0.7 -1.20012
v -0.0995 0.7 -1.20012
v 0.075 0.431888 -1.00273
v 0.025 0.431888 -1.00273
v 0.025 -0.500001 -0.070914
v 0.075 -0.500001 -0.070914
v 0.075 0.501892 -1.00203
v 0.025 0.501892 -1.00203
v -0.075 -0.325 -1
v -0.025 -0.325 -1
v -0.025 -0.325 1
v -0.075 -0.325 1
v -0.075 -0.275 -1
v -0.025 -0.275 -1
v -0.025 -0.275 1
v -0.075 -0.275 1
v 0.025 0.5 1
v 0.025 0.5 -1
v -0.025 0.5 1
v -0.025 0.5 -1
vn -0.707107 -0.707107 0
vn 0 -1 0
vn -0.707107 0.707107 0
vn 0 1 0
vn 0 0 -1
vn 1 0 0
vn 0 0 1
vn -1 0 0
vn 0.840504 -0.3831 0.383129
vn 0 -0.70708 0.707133
vn 0.841554 -0.381946 0.381974
vn 0.434908 0.636754 -0.636709
vn 0.439461 0.63519 -0.635145
vn 0 0.707132 -0.707082
vn 0 0.707132 -0.707082
vn 0.257662 0.966235 0
vn -0.257662 0.966235 0
vn 1 0 0
vn -1 0 0
vn 0.840504 -0.3831 -0.383129
vn 0.841554 -0.381946 -0.381974
vn 0 -0.70708 -0.707133
vn 0.434908 0.636754 0.636709
vn 0.439461 0.63519 0.635145
vn 0 0.707132 0.707082
vn 0 0.707132 0.707082
vn 0.999923 0.0123753 0
vn -0.999923 0.0123753 0
vt 0.816118 0.890227
vt 0.816114 0.910378
vt 0.0128199 0.910378
vt 0.0128167 0.890227
vt 0.0128131 0.870073
vt 0.816114 0.870073
vt 0.0128099 0.849927
vt 0.816113 0.849927
vt 0.992542 0.492758
vt 0.912075 0.492756
vt 0.912075 0.00997826
vt 0.992542 0.0099768
vt 0.992621 0.987898
vt 0.912156 0.987908
vt 0.912156 0.505111
vt 0.992622 0.505111
vt 0.904257 0.987808
vt 0.82379 0.987809
vt 0.82379 0.505021
vt 0.904257 0.505021
vt 0.904257 0.492761
vt 0.82379 0.492762
vt 0.82379 0.00997746
vt 0.904257 0.0099768
vt 0.223733 0.915767
vt 0.223733 0.996233
vt 0.143267 0.996233
vt 0.143267 0.915767
vt 0.790406 0.963109
vt 0.790395 0.983158
vt 0.258311 0.983158
vt 0.2583 0.963109
vt 0.238024 0.94306
vt 0.81021 0.94306
vt 0.238034 0.923012
vt 0.810199 0.923012
vt 0.0131861 0.418279
vt 0.817037 0.418075
vt 0.81704 0.428116
vt 0.013191 0.42832
vt -0.00745767 0.492758
vt -0.00745767 0.0099768
vt -0.0879254 0.00997826
vt -0.0879251 0.492756
vt -0.00737941 0.987898
vt -0.00737798 0.505111
vt -0.0878443 0.505111
vt -0.0878443 0.987908
vt -0.0957432 0.987808
vt -0.0957432 0.505021
vt -0.17621 0.505021
vt -0.17621 0.987809
vt -0.0957427 0.492761
vt -0.0957427 0.0099768
vt -0.17621 0.00997746
vt -0.17621 0.492762
vt -0.776267 0.915767
vt -0.856733 0.915767
vt -0.856733 0.996233
vt -0.776267 0.996233
vt -0.209594 0.963109
vt -0.7417 0.963109
vt -0.741689 0.983158
vt -0.209605 0.983158
vt -0.761976 0.94306
vt -0.18979 0.94306
vt -0.189801 0.923012
vt -0.761966 0.923012
vt -0.183882 0.891227
vt -0.183886 0.911378
vt -0.98718 0.911378
vt -0.987183 0.891227
vt -0.987187 0.871073
vt -0.183886 0.871073
vt -0.98719 0.850927
vt -0.183887 0.850927
vt 0.0131828 0.41185
vt 0.817032 0.411645
vt 0.0131961 0.43475
vt 0.817039 0.434545
vt 0.013217 0.0102434
vt 0.816764 0.00997185
vt 0.816974 0.836219
vt 0.013426 0.836357
mtllib V1 MRG.mtl
usemtl Default
g Default
f 1/1/1 2/2/2 3/3/2 4/4/1
f 8/5/3 5/6/3 1/1/1 4/4/1
f 5/6/3 8/5/3 7/7/4 6/8/4
f 21/9/5 22/10/5 18/11/5 17/12/5
f 22/13/6 23/14/6 19/15/6 18/16/6
f 23/17/7 24/18/7 20/19/7 19/20/7
f 24/21/8 21/22/8 17/23/8 20/24/8
f 21/25/4 24/26/4 23/27/4 22/28/4
f 25/29/9 26/30/10 27/31/10 28/32/11
f 32/33/12 29/34/13 25/29/9 28/32/11
f 29/34/13 32/33/12 31/35/14 30/36/15
f 15/37/16 14/38/16 13/39/17 16/40/17
f 37/41/7 33/42/7 34/43/7 38/44/7
f 38/45/18 34/46/18 35/47/18 39/48/18
f 39/49/5 35/50/5 36/51/5 40/52/5
f 40/53/19 36/54/19 33/55/19 37/56/19
f 37/57/4 38/58/4 39/59/4 40/60/4
f 41/61/20 44/62/21 43/63/22 42/64/22
f 32/65/23 44/62/21 41/61/20 45/66/24
f 45/66/24 46/67/25 31/68/26 32/65/23
f 47/69/1 48/70/2 49/71/2 50/72/1
f 54/73/3 51/74/3 47/69/1 50/72/1
f 51/74/3 54/73/3 53/75/4 52/76/4
f 15/37/16 55/77/27 56/78/27 14/38/16
f 57/79/28 16/40/17 13/39/17 58/80/28
f 55/77/27 11/81/18 10/82/18 56/78/27
f 57/79/28 58/80/28 9/83/19 12/84/19
